<svg width="40" height="40" viewBox="0 0 40 40" fill="none" xmlns="http://www.w3.org/2000/svg">
<rect width="40" height="40" fill="black"/>
<path d="M30.0867 21.5337C30.0867 22.5032 30.0867 23.4728 30.0867 24.4423C29.9433 24.5705 29.7652 24.5624 29.5921 24.5625C25.1312 24.5648 20.6702 24.5658 16.2092 24.5618C15.6106 24.5612 15.4997 24.4458 15.4987 23.8298C15.4942 21.3073 15.4944 18.7849 15.4986 16.2624C15.4996 15.6323 15.6094 15.5227 16.2394 15.522C19.6318 15.5182 23.024 15.5207 26.4163 15.5202C27.1301 15.5201 27.1308 15.5196 27.1307 14.8014C27.1305 14.3292 27.1268 13.8569 27.1314 13.3849C27.1339 13.1188 27.0247 12.9936 26.7551 13.0051C26.6189 13.0108 26.4818 13.0043 26.3451 13.0043C21.1262 13.0042 15.9072 13.0045 10.6884 13.004C9.91417 13.0039 9.90536 13.0026 9.9167 12.2407C9.92795 11.4852 9.86727 10.7284 9.95034 9.97399C16.563 9.97399 23.1757 9.97592 29.7883 9.9668C30.0437 9.96649 30.0951 10.0167 30.0941 10.2723C30.0822 13.0317 30.0867 15.7912 30.0867 18.5506C29.8946 18.7105 29.6627 18.6692 29.4432 18.6694C26.103 18.672 22.7629 18.671 19.4228 18.6713C18.6478 18.6714 18.6474 18.6719 18.6476 19.4462C18.6477 19.9553 18.6409 20.4644 18.6503 20.9734C18.6573 21.3509 18.7057 21.3949 19.0875 21.41C19.3233 21.4193 19.5593 21.4131 19.7953 21.4131C23.0112 21.4133 26.2272 21.4122 29.4432 21.415C29.6627 21.4151 29.8946 21.3737 30.0867 21.5337Z" fill="#E13022"/>
<path d="M30.094 29.9936C23.5028 29.9936 16.9118 29.9916 10.3207 30C10.015 30.0004 9.90465 29.9594 9.90577 29.6122C9.9207 25.0991 9.91867 20.586 9.90872 16.073C9.90811 15.7839 9.9798 15.7043 10.2722 15.7136C10.9816 15.736 11.6927 15.7345 12.4023 15.7148C12.7264 15.7059 12.8258 15.8041 12.8248 16.1331C12.8132 19.7337 12.8198 23.3343 12.8123 26.9349C12.8118 27.175 12.8439 27.2703 13.1244 27.2699C18.7437 27.2606 24.363 27.2628 29.9823 27.2625C30.0195 27.2625 30.0568 27.2584 30.0941 27.2562C30.094 28.1685 30.094 29.0811 30.094 29.9936Z" fill="#E13022"/>
</svg>
