<svg width="904" height="510" viewBox="0 0 904 510" fill="none" xmlns="http://www.w3.org/2000/svg">
<g clip-path="url(#clip0_2170_1347)">
<path d="M185.85 269.965C185.85 278.511 185.85 287.058 185.85 295.604C184.53 296.734 182.89 296.663 181.295 296.664C140.214 296.684 99.1314 296.693 58.05 296.657C52.5372 296.653 51.5156 295.635 51.5063 290.205C51.4652 267.969 51.4671 245.733 51.5053 223.497C51.5146 217.943 52.526 216.977 58.328 216.97C89.5687 216.936 120.808 216.959 152.049 216.954C158.623 216.953 158.628 216.949 158.627 210.618C158.626 206.456 158.592 202.292 158.634 198.131C158.657 195.786 157.652 194.682 155.169 194.783C153.914 194.834 152.652 194.776 151.393 194.776C103.332 194.775 55.2688 194.778 7.20704 194.773C0.0774506 194.772 -0.00371584 194.761 0.100774 188.045C0.204332 181.385 -0.354505 174.714 0.410513 168.063C61.3078 168.063 122.205 168.08 183.102 168C185.454 167.997 185.927 168.44 185.918 170.693C185.809 195.018 185.85 219.343 185.85 243.667C184.081 245.078 181.946 244.713 179.924 244.715C149.164 244.738 118.404 244.729 87.644 244.732C80.507 244.733 80.5032 244.737 80.5051 251.563C80.506 256.05 80.4435 260.539 80.5303 265.025C80.5947 268.353 81.0406 268.741 84.5569 268.874C86.7279 268.956 88.9016 268.901 91.0745 268.901C120.691 268.903 150.307 268.894 179.924 268.918C181.946 268.919 184.081 268.554 185.85 269.965Z" fill="#E13022"/>
<path d="M185.467 345.455C124.914 345.455 64.3633 345.437 3.81211 345.512C1.00393 345.516 -0.0101854 345.152 7.7012e-05 342.066C0.137221 301.964 0.118562 261.863 0.0271325 221.761C0.0215348 219.193 0.680197 218.486 3.36616 218.568C9.88374 218.767 16.4162 218.754 22.9357 218.579C25.9127 218.499 26.8261 219.372 26.8168 222.295C26.7104 254.289 26.771 286.283 26.702 318.277C26.6973 320.41 26.9922 321.257 29.569 321.253C81.1928 321.171 132.817 321.191 184.44 321.188C184.783 321.188 185.125 321.151 185.468 321.132C185.467 329.239 185.467 337.347 185.467 345.455Z" fill="#E13022"/>
<path d="M374.985 292.172C374.985 296.169 374.985 305.004 374.985 313.838C373.687 315.005 372.074 314.932 370.506 314.933C330.11 314.954 294.525 314.963 254.129 314.926C248.708 314.921 247.704 313.869 247.694 308.257C247.654 285.273 247.656 271.963 247.693 248.978C247.703 243.238 248.697 242.239 254.402 242.233C285.122 242.198 315.841 242.221 346.561 242.216C353.025 242.215 353.03 242.21 353.029 235.667C353.029 231.364 352.995 227.061 353.036 222.76C353.059 220.336 352.07 219.195 349.629 219.299C348.395 219.352 347.154 219.292 345.916 219.292C298.656 219.291 301.851 219.293 254.59 219.289C247.58 219.288 247.5 219.277 247.603 212.334C247.704 205.449 247.156 203.391 247.907 196.517C307.789 196.517 312.401 196.534 372.283 196.451C374.596 196.448 375.061 196.906 375.052 199.235C374.945 224.378 374.985 239.848 374.985 264.99C373.246 266.447 371.146 266.071 369.158 266.073C338.91 266.097 308.664 266.087 278.416 266.09C271.398 266.091 271.395 266.096 271.397 273.151C271.397 277.789 271.336 282.429 271.421 287.066C271.485 290.505 271.923 290.907 275.381 291.044C277.516 291.129 279.653 291.072 281.79 291.072C310.912 291.074 340.035 291.065 369.158 291.09C371.146 291.091 373.246 290.714 374.985 292.172Z" fill="#E13022"/>
<path d="M822.962 316.345V241.808C822.962 237.536 824.078 233.657 826.309 230.172C828.541 226.687 831.477 223.876 835.118 221.74C838.876 219.604 842.928 218.536 847.274 218.536H904.002V240.627H848.155C847.568 240.627 847.039 240.852 846.569 241.302C846.217 241.639 846.041 242.089 846.041 242.651V316.345H822.962Z" fill="#E13022"/>
<path d="M780.292 316.345V218.536H803.365V316.345H780.292ZM780.292 208.755V186.495H803.365V208.755H780.292Z" fill="#E13022"/>
<path d="M682.279 316.345C677.816 316.345 673.705 315.277 669.947 313.141C666.306 311.005 663.369 308.194 661.138 304.709C659.024 301.224 657.967 297.345 657.967 293.073V256.311H738.654V242.651C738.654 242.089 738.42 241.639 737.95 241.302C737.597 240.852 737.128 240.627 736.54 240.627H657.967V218.536H737.421C741.884 218.536 745.936 219.604 749.577 221.74C753.336 223.876 756.272 226.687 758.386 230.172C760.617 233.657 761.733 237.536 761.733 241.808V316.345H682.279ZM683.16 294.254H738.654V276.21H681.046V292.23C681.046 292.792 681.222 293.298 681.574 293.748C682.044 294.085 682.572 294.254 683.16 294.254Z" fill="#E13022"/>
<path d="M531.716 316.346V194.928H648.519V217.356H555.147V244.338H630.197V266.935H555.147V316.346H531.716Z" fill="#E13022"/>
<path d="M391.148 316.346V194.928H414.58V244.338H444.353L487.692 194.928H513.061V201.336L465.494 255.637L513.237 309.938V316.346H487.692L444.353 266.935H414.58V316.346H391.148Z" fill="#E13022"/>
</g>
<defs>
<clipPath id="clip0_2170_1347">
<rect width="904" height="510" fill="white"/>
</clipPath>
</defs>
</svg>
