<svg width="328" height="184" viewBox="0 0 328 184" fill="none" xmlns="http://www.w3.org/2000/svg">
<path d="M67.4323 97.996C67.4323 101.097 67.4323 104.198 67.4323 107.299C66.9533 107.709 66.3582 107.683 65.7797 107.683C50.874 107.691 35.968 107.694 21.0624 107.681C19.0622 107.679 18.6915 107.31 18.6881 105.34C18.6732 97.2718 18.6739 89.204 18.6878 81.1359C18.6912 79.1208 19.0581 78.7703 21.1632 78.768C32.4984 78.7557 43.8332 78.7638 55.1683 78.7622C57.5534 78.7618 57.5554 78.7602 57.5551 76.4632C57.5548 74.953 57.5422 73.4424 57.5575 71.9325C57.5659 71.0816 57.201 70.6811 56.3003 70.7177C55.845 70.7362 55.387 70.7151 54.9303 70.7151C37.492 70.7148 20.0533 70.7158 2.61495 70.7141C0.0281015 70.7138 -0.00134823 70.7099 0.0365642 68.273C0.0741381 65.8564 -0.128626 63.436 0.148947 61.023C22.2444 61.023 44.3399 61.0292 66.4354 61C67.2888 60.999 67.4604 61.1597 67.457 61.9773C67.4174 70.8029 67.4323 79.6289 67.4323 88.4546C66.7905 88.9662 66.0156 88.834 65.2821 88.8347C54.1213 88.8431 42.9608 88.8398 31.8 88.8408C29.2105 88.8411 29.2091 88.8428 29.2098 91.3192C29.2102 92.9474 29.1875 94.576 29.219 96.2039C29.2423 97.4112 29.4041 97.5521 30.6799 97.6004C31.4676 97.6302 32.2564 97.6101 33.0447 97.6101C43.7905 97.6108 54.5363 97.6075 65.2821 97.6163C66.0156 97.6166 66.7905 97.4841 67.4323 97.996Z" fill="#E13022"/>
<path d="M67.2932 125.386C45.3229 125.386 23.3531 125.379 1.38315 125.407C0.364258 125.408 -0.0036956 125.276 2.79424e-05 124.156C0.049788 109.606 0.0430179 95.0558 0.00984455 80.5057C0.00781352 79.5738 0.246797 79.3172 1.22135 79.347C3.58614 79.4193 5.95634 79.4144 8.3218 79.3509C9.40197 79.3221 9.73336 79.6389 9.72998 80.6995C9.69139 92.3078 9.71339 103.916 9.68834 115.525C9.68665 116.299 9.79361 116.606 10.7286 116.604C29.4593 116.575 48.1901 116.582 66.9208 116.581C67.0451 116.581 67.1693 116.568 67.2935 116.56C67.2932 119.502 67.2932 122.444 67.2932 125.386Z" fill="#E13022"/>
<path d="M136.056 106.055C136.056 107.505 136.056 110.711 136.056 113.916C135.585 114.339 135 114.313 134.431 114.313C119.774 114.321 106.863 114.324 92.2055 114.311C90.2387 114.309 89.8742 113.927 89.8709 111.891C89.8562 103.551 89.8569 98.7222 89.8705 90.3828C89.8739 88.2999 90.2347 87.9375 92.3047 87.9352C103.451 87.9224 114.597 87.9308 125.743 87.9291C128.088 87.9288 128.09 87.9271 128.09 85.5529C128.089 83.9919 128.077 82.4305 128.092 80.8698C128.1 79.9903 127.742 79.5763 126.856 79.6141C126.408 79.6332 125.958 79.6115 125.509 79.6115C108.361 79.6111 109.521 79.6121 92.373 79.6105C89.8293 79.6101 89.8003 79.6061 89.8376 77.0872C89.8745 74.589 89.6755 73.8421 89.9481 71.348C111.675 71.348 113.349 71.3544 135.076 71.3242C135.915 71.3232 136.084 71.4893 136.08 72.3343C136.041 81.4568 136.056 87.0698 136.056 96.1923C135.425 96.7211 134.663 96.5845 133.942 96.5851C122.967 96.5938 111.993 96.5905 101.018 96.5915C98.4714 96.5918 98.4701 96.5935 98.4708 99.1533C98.4711 100.836 98.4488 102.52 98.4798 104.202C98.5027 105.45 98.6618 105.596 99.9164 105.646C100.691 105.676 101.467 105.656 102.242 105.656C112.808 105.656 123.375 105.653 133.942 105.662C134.663 105.663 135.425 105.526 136.056 106.055Z" fill="#E13022"/>
<path d="M298.595 114.825V87.7807C298.595 86.2306 299 84.8233 299.809 83.5588C300.619 82.2943 301.684 81.2745 303.005 80.4995C304.369 79.7244 305.839 79.3369 307.416 79.3369H327.999V87.3524H307.736C307.522 87.3524 307.331 87.4339 307.16 87.5971C307.032 87.7195 306.968 87.8826 306.968 88.0866V114.825H298.595Z" fill="#E13022"/>
<path d="M283.113 114.825V79.3364H291.485V114.825H283.113ZM283.113 75.7876V67.7109H291.485V75.7876H283.113Z" fill="#E13022"/>
<path d="M247.551 114.825C245.931 114.825 244.44 114.438 243.076 113.663C241.755 112.888 240.69 111.868 239.88 110.603C239.113 109.339 238.729 107.931 238.729 106.381V93.0427H268.006V88.0866C268.006 87.8826 267.92 87.7195 267.75 87.5971C267.622 87.4339 267.452 87.3524 267.238 87.3524H238.729V79.3369H267.558C269.177 79.3369 270.648 79.7244 271.969 80.4995C273.332 81.2745 274.398 82.2943 275.165 83.5588C275.974 84.8233 276.379 86.2306 276.379 87.7807V114.825H247.551ZM247.87 106.81H268.006V100.263H247.103V106.075C247.103 106.279 247.167 106.463 247.295 106.626C247.465 106.748 247.657 106.81 247.87 106.81Z" fill="#E13022"/>
<path d="M192.921 114.825V70.7705H235.301V78.9083H201.422V88.6982H228.653V96.8972H201.422V114.825H192.921Z" fill="#E13022"/>
<path d="M141.919 114.825V70.7705H150.421V88.6982H161.223L176.948 70.7705H186.153V73.0956L168.894 92.7977L186.217 112.5V114.825H176.948L161.223 96.8972H150.421V114.825H141.919Z" fill="#E13022"/>
</svg>
