<svg width="275" height="180" viewBox="0 0 275 180" fill="none" xmlns="http://www.w3.org/2000/svg">
<path d="M56.5361 92.018C56.5361 94.6178 56.5361 97.2179 56.5361 99.8177C56.1346 100.161 55.6356 100.14 55.1506 100.14C42.6535 100.146 30.1561 100.149 17.659 100.138C15.982 100.137 15.6712 99.8269 15.6684 98.1752C15.6559 91.4108 15.6564 84.6467 15.6681 77.8822C15.6709 76.1928 15.9786 75.8988 17.7436 75.8969C27.2471 75.8866 36.7503 75.8934 46.2539 75.892C48.2536 75.8918 48.2553 75.8904 48.255 73.9646C48.2547 72.6984 48.2442 71.4319 48.257 70.1659C48.2641 69.4525 47.9581 69.1168 47.2029 69.1475C46.8212 69.1629 46.4372 69.1453 46.0543 69.1453C31.4338 69.145 16.813 69.1458 2.19241 69.1445C0.0235607 69.1442 -0.00113037 69.1409 0.0306559 67.0978C0.0621584 65.0717 -0.107841 63.0424 0.12488 61.0193C18.65 61.0193 37.1752 61.0245 55.7003 61C56.4158 60.9992 56.5597 61.1339 56.5569 61.8193C56.5237 69.2189 56.5361 76.6187 56.5361 84.0183C55.9981 84.4473 55.3484 84.3364 54.7334 84.337C45.376 84.344 36.019 84.3413 26.6616 84.3421C24.4905 84.3424 24.4893 84.3437 24.4899 86.4201C24.4902 87.7852 24.4712 89.1506 24.4976 90.5154C24.5172 91.5276 24.6528 91.6458 25.7225 91.6863C26.3829 91.7113 27.0442 91.6944 27.7051 91.6944C36.7146 91.695 45.724 91.6922 54.7334 91.6996C55.3484 91.6998 55.9981 91.5887 56.5361 92.018Z" fill="#E13022"/>
<path d="M56.4195 114.982C37.9994 114.982 19.5795 114.977 1.15966 115C0.305399 115.001 -0.00309844 114.89 2.34273e-05 113.951C0.0417429 101.752 0.0360668 89.5533 0.0082538 77.3542C0.00655097 76.5729 0.206918 76.3578 1.024 76.3828C3.00666 76.4433 4.99387 76.4393 6.97711 76.386C7.88274 76.3618 8.16058 76.6275 8.15774 77.5167C8.12539 87.2493 8.14384 96.9819 8.12284 106.715C8.12142 107.364 8.2111 107.621 8.99497 107.62C24.6991 107.595 40.4032 107.601 56.1073 107.6C56.2115 107.6 56.3157 107.589 56.4198 107.583C56.4195 110.049 56.4195 112.516 56.4195 114.982Z" fill="#E13022"/>
<path d="M114.071 98.774C114.071 99.9899 114.071 102.677 114.071 105.365C113.676 105.72 113.186 105.697 112.709 105.698C100.42 105.704 89.5951 105.707 77.3064 105.696C75.6573 105.694 75.3517 105.374 75.3489 103.667C75.3367 96.675 75.3372 92.6261 75.3487 85.6342C75.3515 83.8879 75.654 83.5841 77.3895 83.5821C86.7346 83.5715 96.0794 83.5785 105.424 83.5771C107.391 83.5768 107.393 83.5754 107.392 81.5848C107.392 80.276 107.382 78.9669 107.394 77.6584C107.401 76.921 107.1 76.5739 106.358 76.6057C105.982 76.6217 105.605 76.6034 105.228 76.6034C90.8515 76.6031 91.8235 76.604 77.4468 76.6026C75.3141 76.6023 75.2898 76.5989 75.321 74.487C75.352 72.3925 75.1851 71.7663 75.4137 69.6752C93.63 69.6752 95.033 69.6805 113.249 69.6553C113.953 69.6544 114.094 69.7937 114.092 70.5022C114.059 78.1506 114.071 82.8566 114.071 90.505C113.542 90.9484 112.903 90.8338 112.298 90.8344C103.097 90.8417 93.8961 90.8389 84.6947 90.8397C82.5598 90.84 82.5587 90.8414 82.5592 92.9875C82.5595 94.3986 82.5408 95.8099 82.5668 97.2206C82.586 98.2668 82.7194 98.389 83.7713 98.4308C84.4207 98.4567 85.0709 98.4393 85.7209 98.4393C94.5801 98.4398 103.439 98.437 112.298 98.4446C112.903 98.4452 113.542 98.3303 114.071 98.774Z" fill="#E13022"/>
<path d="M250.347 106.127V83.4524C250.347 82.1528 250.686 80.9729 251.365 79.9127C252.044 78.8525 252.937 77.9975 254.045 77.3477C255.188 76.6979 256.421 76.373 257.742 76.373H274.999V83.0933H258.01C257.832 83.0933 257.671 83.1617 257.528 83.2985C257.421 83.4011 257.367 83.5379 257.367 83.7089V106.127H250.347Z" fill="#E13022"/>
<path d="M237.366 106.127V76.3729H244.385V106.127H237.366ZM237.366 73.3975V66.626H244.385V73.3975H237.366Z" fill="#E13022"/>
<path d="M207.55 106.127C206.192 106.127 204.942 105.802 203.799 105.152C202.691 104.502 201.798 103.647 201.119 102.587C200.476 101.527 200.154 100.347 200.154 99.0475V87.8642H224.7V83.7089C224.7 83.5379 224.628 83.4011 224.485 83.2985C224.378 83.1617 224.235 83.0933 224.057 83.0933H200.154V76.373H224.325C225.682 76.373 226.915 76.6979 228.022 77.3477C229.166 77.9975 230.059 78.8525 230.702 79.9127C231.381 80.9729 231.72 82.1528 231.72 83.4524V106.127H207.55ZM207.818 99.4066H224.7V93.9175H207.175V98.791C207.175 98.962 207.229 99.1159 207.336 99.2527C207.479 99.3553 207.639 99.4066 207.818 99.4066Z" fill="#E13022"/>
<path d="M161.748 106.127V69.1914H197.28V76.0143H168.876V84.2222H191.706V91.0964H168.876V106.127H161.748Z" fill="#E13022"/>
<path d="M118.987 106.127V69.1914H126.115V84.2222H135.172L148.356 69.1914H156.073V71.1408L141.603 87.6593L156.127 104.178V106.127H148.356L135.172 91.0964H126.115V106.127H118.987Z" fill="#E13022"/>
</svg>
