<svg width="256" height="256" viewBox="0 0 256 256" fill="none" xmlns="http://www.w3.org/2000/svg">
<path d="M255.906 146.9C255.906 158.668 255.906 170.437 255.906 182.205C254.088 183.76 251.83 183.662 249.634 183.663C193.067 183.692 136.499 183.704 79.9319 183.655C72.341 183.649 70.9344 182.247 70.9215 174.77C70.865 144.152 70.8676 113.535 70.9202 82.916C70.9331 75.2687 72.3256 73.9383 80.3147 73.9296C123.332 73.8829 166.347 73.9137 209.364 73.9075C218.416 73.9063 218.423 73.9001 218.422 65.1831C218.421 59.4516 218.373 53.719 218.431 47.9887C218.463 44.7597 217.078 43.2398 213.66 43.3787C211.932 43.4488 210.194 43.3689 208.461 43.3689C142.282 43.3677 76.1024 43.3714 9.92374 43.3652C0.106646 43.364 -0.00511653 43.3492 0.138761 34.101C0.281355 24.9302 -0.488135 15.7446 0.565256 6.58732C84.4178 6.58732 168.27 6.61069 252.123 6.50002C255.361 6.49633 256.013 7.10624 256 10.2087C255.85 43.7021 255.906 77.1969 255.906 110.69C253.47 112.632 250.53 112.13 247.746 112.133C205.391 112.165 163.037 112.152 120.681 112.156C110.854 112.157 110.849 112.163 110.851 121.562C110.853 127.741 110.767 133.921 110.886 140.099C110.975 144.681 111.589 145.215 116.431 145.399C119.42 145.512 122.413 145.436 125.405 145.436C166.185 145.438 206.966 145.426 247.746 145.459C250.53 145.46 253.47 144.957 255.906 146.9Z" fill="#E13022"/>
<path d="M255.378 250.847C172.001 250.847 88.625 250.823 5.24908 250.926C1.38236 250.931 -0.0140248 250.429 0.000106042 246.181C0.188946 190.963 0.163253 135.745 0.0373601 80.527C0.0296524 76.9905 0.936597 76.0166 4.63503 76.1297C13.6094 76.4039 22.6043 76.3855 31.5813 76.1445C35.6805 76.035 36.9382 77.2376 36.9253 81.2623C36.7789 125.316 36.8624 169.37 36.7673 213.424C36.7609 216.361 37.1668 217.527 40.715 217.522C111.798 217.409 182.882 217.436 253.965 217.432C254.437 217.432 254.908 217.382 255.379 217.355C255.378 228.518 255.378 239.683 255.378 250.847Z" fill="#E13022"/>
</svg>
