<svg width="496" height="496" viewBox="0 0 496 496" fill="none" xmlns="http://www.w3.org/2000/svg">
<rect width="496" height="496" fill="#FF0000"/>
<path d="M357.336 262.002C357.336 271.761 357.336 281.521 357.336 291.28C355.893 292.57 354.101 292.488 352.358 292.489C307.454 292.513 262.549 292.523 217.645 292.482C211.619 292.477 210.502 291.315 210.492 285.114C210.447 259.722 210.449 234.332 210.491 208.94C210.501 202.598 211.607 201.494 217.949 201.487C252.096 201.448 286.243 201.474 320.391 201.469C327.576 201.468 327.582 201.463 327.581 194.234C327.58 189.481 327.542 184.727 327.588 179.974C327.613 177.297 326.514 176.036 323.801 176.151C322.429 176.21 321.049 176.143 319.674 176.143C267.14 176.142 214.605 176.145 162.071 176.14C154.278 176.139 154.189 176.127 154.304 168.457C154.417 160.852 153.806 153.234 154.642 145.64C221.206 145.64 287.769 145.66 354.333 145.568C356.904 145.565 357.421 146.071 357.411 148.643C357.292 176.42 357.336 204.197 357.336 231.973C355.403 233.583 353.069 233.167 350.859 233.169C317.236 233.196 283.615 233.185 249.993 233.188C242.191 233.189 242.187 233.195 242.189 240.989C242.19 246.113 242.122 251.238 242.217 256.361C242.287 260.161 242.775 260.605 246.618 260.757C248.991 260.85 251.367 260.787 253.742 260.787C286.114 260.789 318.487 260.779 350.859 260.806C353.069 260.808 355.403 260.39 357.336 262.002Z" fill="white"/>
<path d="M357.41 347.158C291.063 347.158 224.717 347.137 158.37 347.222C155.293 347.226 154.182 346.814 154.193 343.318C154.344 297.889 154.323 252.46 154.223 207.032C154.217 204.122 154.939 203.321 157.882 203.414C165.023 203.639 172.181 203.624 179.324 203.426C182.586 203.336 183.587 204.325 183.577 207.637C183.46 243.881 183.527 280.124 183.451 316.368C183.446 318.785 183.769 319.744 186.592 319.74C243.157 319.647 299.721 319.67 356.285 319.666C356.661 319.666 357.036 319.625 357.411 319.603C357.41 328.787 357.41 337.973 357.41 347.158Z" fill="white"/>
</svg>
