<svg width="625" height="320" viewBox="0 0 625 320" fill="none" xmlns="http://www.w3.org/2000/svg">
<path d="M128.491 163.495C128.491 169.404 128.491 175.313 128.491 181.222C127.579 182.003 126.445 181.954 125.342 181.954C96.9398 181.968 68.5366 181.975 40.1341 181.95C36.3227 181.947 35.6164 181.243 35.6099 177.489C35.5815 162.115 35.5828 146.742 35.6093 131.369C35.6157 127.529 36.3149 126.861 40.3263 126.857C61.9252 126.833 83.5235 126.849 105.122 126.846C109.667 126.845 109.671 126.842 109.67 122.465C109.67 119.587 109.646 116.709 109.675 113.832C109.691 112.21 108.996 111.447 107.279 111.517C106.412 111.552 105.539 111.512 104.669 111.512C71.4404 111.511 38.2113 111.513 4.98274 111.51C0.0535471 111.51 -0.00256903 111.502 0.0696725 106.859C0.141269 102.254 -0.245094 97.6417 0.283817 93.0438C42.3864 93.0438 84.4891 93.0556 126.592 93C128.218 92.9982 128.545 93.3044 128.538 94.8621C128.463 111.679 128.491 128.497 128.491 145.314C127.268 146.289 125.792 146.037 124.394 146.039C103.127 146.055 81.8613 146.048 60.5945 146.05C55.6602 146.051 55.6576 146.054 55.6589 150.773C55.6595 153.875 55.6163 156.979 55.6763 160.08C55.7208 162.381 56.0291 162.65 58.4602 162.741C59.9611 162.798 61.464 162.76 62.9662 162.76C83.4422 162.761 103.918 162.755 124.394 162.772C125.792 162.772 127.268 162.52 128.491 163.495Z" fill="#E13022"/>
<path d="M128.226 215.687C86.3622 215.687 44.4989 215.674 2.63558 215.726C0.694088 215.729 -0.00704191 215.477 5.32439e-05 213.344C0.0948703 185.618 0.08197 157.893 0.0187586 130.168C0.0148886 128.393 0.470268 127.904 2.32726 127.96C6.83333 128.098 11.3497 128.089 15.8571 127.968C17.9153 127.913 18.5468 128.517 18.5403 130.537C18.4668 152.657 18.5087 174.777 18.461 196.896C18.4578 198.371 18.6616 198.956 20.4431 198.954C56.1343 198.897 91.8255 198.911 127.517 198.909C127.753 198.909 127.99 198.884 128.227 198.87C128.226 204.475 128.226 210.081 128.226 215.687Z" fill="#E13022"/>
<path d="M259.254 178.849C259.254 181.612 259.254 187.72 259.254 193.828C258.356 194.635 257.241 194.584 256.157 194.585C228.228 194.599 203.627 194.606 175.698 194.58C171.95 194.577 171.255 193.849 171.249 189.969C171.221 174.078 171.222 164.876 171.248 148.986C171.255 145.017 171.942 144.326 175.887 144.322C197.125 144.298 218.364 144.314 239.602 144.31C244.071 144.31 244.075 144.307 244.074 139.782C244.074 136.808 244.05 133.833 244.079 130.859C244.095 129.183 243.411 128.394 241.723 128.466C240.87 128.503 240.012 128.461 239.156 128.461C206.482 128.461 208.691 128.462 176.017 128.459C171.17 128.459 171.114 128.451 171.185 123.651C171.256 118.891 170.877 117.468 171.396 112.715C212.797 112.715 215.985 112.727 257.386 112.67C258.985 112.668 259.307 112.985 259.3 114.595C259.226 131.977 259.254 142.673 259.254 160.056C258.051 161.063 256.599 160.803 255.225 160.804C234.313 160.821 213.401 160.814 192.489 160.816C187.637 160.817 187.635 160.82 187.636 165.698C187.637 168.905 187.594 172.112 187.653 175.318C187.697 177.696 188 177.974 190.39 178.069C191.866 178.128 193.344 178.088 194.821 178.088C214.956 178.089 235.091 178.083 255.225 178.1C256.599 178.101 258.052 177.84 259.254 178.849Z" fill="#E13022"/>
<path d="M568.972 195.561V144.028C568.972 141.074 569.743 138.393 571.286 135.983C572.829 133.574 574.859 131.63 577.376 130.154C579.974 128.677 582.776 127.938 585.78 127.938H625V143.212H586.389C585.983 143.212 585.618 143.367 585.293 143.678C585.049 143.911 584.928 144.222 584.928 144.611V195.561H568.972Z" fill="#E13022"/>
<path d="M539.471 195.561V127.938H555.423V195.561H539.471ZM539.471 121.176V105.786H555.423V121.176H539.471Z" fill="#E13022"/>
<path d="M471.707 195.561C468.621 195.561 465.779 194.822 463.181 193.346C460.664 191.869 458.634 189.926 457.091 187.516C455.629 185.106 454.898 182.425 454.898 179.471V154.055H510.684V144.611C510.684 144.222 510.521 143.911 510.196 143.678C509.953 143.367 509.628 143.212 509.222 143.212H454.898V127.938H509.831C512.917 127.938 515.718 128.677 518.235 130.154C520.834 131.63 522.864 133.574 524.325 135.983C525.868 138.393 526.64 141.074 526.64 144.028V195.561H471.707ZM472.316 180.287H510.684V167.812H470.854V178.888C470.854 179.277 470.976 179.627 471.22 179.938C471.545 180.171 471.91 180.287 472.316 180.287Z" fill="#E13022"/>
<path d="M367.612 195.562V111.617H448.367V127.124H383.812V145.778H435.699V161.401H383.812V195.562H367.612Z" fill="#E13022"/>
<path d="M270.428 195.562V111.617H286.627V145.778H307.212L337.175 111.617H354.714V116.048L321.828 153.59L354.836 191.132V195.562H337.175L307.212 161.401H286.627V195.562H270.428Z" fill="#E13022"/>
</svg>
